<svg xmlns="http://www.w3.org/2000/svg" xmlns:xlink="http://www.w3.org/1999/xlink" width="500" zoomAndPan="magnify" viewBox="0 0 375 374.999991" height="500" preserveAspectRatio="xMidYMid meet" version="1.2"><defs><clipPath id="99204056b2"><path d="M 105 120.875 L 202.355469 120.875 L 202.355469 270.875 L 105 270.875 Z M 105 120.875 "/></clipPath><clipPath id="1f3815af78"><path d="M 215.535156 120.875 L 295.785156 120.875 L 295.785156 270.875 L 215.535156 270.875 Z M 215.535156 120.875 "/></clipPath></defs><g id="55ba634c4a"><rect x="0" width="375" y="0" height="374.999991" style="fill:#ffffff;fill-opacity:1;stroke:none;"/><rect x="0" width="375" y="0" height="374.999991" style="fill:#ffffff;fill-opacity:1;stroke:none;"/><rect x="0" width="375" y="0" height="374.999991" style="fill:#a21313;fill-opacity:1;stroke:none;"/><g clip-rule="nonzero" clip-path="url(#99204056b2)"><path style=" stroke:none;fill-rule:nonzero;fill:#ffffff;fill-opacity:1;" d="M 122.667969 270.875 L 105.03125 270.875 L 105.03125 120.875 L 160.144531 120.875 C 183.238281 120.875 202.027344 139.664062 202.027344 162.761719 C 202.027344 185.855469 183.238281 204.644531 160.144531 204.644531 L 144.710938 204.644531 L 144.710938 187.007812 L 160.144531 187.007812 C 173.515625 187.007812 184.390625 176.132812 184.390625 162.761719 C 184.390625 149.390625 173.515625 138.511719 160.144531 138.511719 L 122.667969 138.511719 L 122.667969 270.875 "/></g><g clip-rule="nonzero" clip-path="url(#1f3815af78)"><path style=" stroke:none;fill-rule:nonzero;fill:#f1f1f1;fill-opacity:1;" d="M 215.761719 120.875 L 215.761719 270.875 L 295.449219 270.875 L 295.449219 242.75 L 243.886719 242.75 L 243.886719 120.875 L 215.761719 120.875 "/></g></g></svg>